<svg xmlns="http://www.w3.org/2000/svg" xmlns:xlink="http://www.w3.org/1999/xlink" width="164" zoomAndPan="magnify" viewBox="0 0 123 37.5" height="50" preserveAspectRatio="xMidYMid meet" version="1.0"><defs><g/><clipPath id="f34d4fb533"><path d="M 0.808594 0 L 37.816406 0 L 37.816406 37.007812 L 0.808594 37.007812 Z M 0.808594 0 " clip-rule="nonzero"/></clipPath><clipPath id="9113c7aa35"><path d="M 2.289062 0 L 36.335938 0 C 36.726562 0 37.105469 0.15625 37.382812 0.433594 C 37.660156 0.710938 37.816406 1.085938 37.816406 1.480469 L 37.816406 35.527344 C 37.816406 35.917969 37.660156 36.296875 37.382812 36.574219 C 37.105469 36.851562 36.726562 37.007812 36.335938 37.007812 L 2.289062 37.007812 C 1.898438 37.007812 1.519531 36.851562 1.242188 36.574219 C 0.964844 36.296875 0.808594 35.917969 0.808594 35.527344 L 0.808594 1.480469 C 0.808594 1.085938 0.964844 0.710938 1.242188 0.433594 C 1.519531 0.15625 1.898438 0 2.289062 0 Z M 2.289062 0 " clip-rule="nonzero"/></clipPath><clipPath id="2cbafc7015"><path d="M 0.808594 0 L 37.816406 0 L 37.816406 37.007812 L 0.808594 37.007812 Z M 0.808594 0 " clip-rule="nonzero"/></clipPath><clipPath id="d8ca4e0436"><path d="M 2.289062 0 L 36.335938 0 C 36.726562 0 37.105469 0.15625 37.382812 0.433594 C 37.660156 0.710938 37.816406 1.085938 37.816406 1.480469 L 37.816406 35.527344 C 37.816406 35.917969 37.660156 36.296875 37.382812 36.574219 C 37.105469 36.851562 36.726562 37.007812 36.335938 37.007812 L 2.289062 37.007812 C 1.898438 37.007812 1.519531 36.851562 1.242188 36.574219 C 0.964844 36.296875 0.808594 35.917969 0.808594 35.527344 L 0.808594 1.480469 C 0.808594 1.085938 0.964844 0.710938 1.242188 0.433594 C 1.519531 0.15625 1.898438 0 2.289062 0 Z M 2.289062 0 " clip-rule="nonzero"/></clipPath><clipPath id="a9cc0f506e"><rect x="0" width="38" y="0" height="38"/></clipPath></defs><g clip-path="url(#f34d4fb533)"><g clip-path="url(#9113c7aa35)"><g transform="matrix(1, 0, 0, 1, 0.000000000000000111, -0.000000000000001478)"><g clip-path="url(#a9cc0f506e)"><g clip-path="url(#2cbafc7015)"><g clip-path="url(#d8ca4e0436)"><path fill="#c7421a" d="M 0.808594 0 L 37.816406 0 L 37.816406 37.007812 L 0.808594 37.007812 Z M 0.808594 0 " fill-opacity="1" fill-rule="nonzero"/></g></g></g></g></g></g><g fill="#c7421a" fill-opacity="1"><g transform="translate(48.198387, 25.707226)"><g><path d="M 3.625 0.203125 C 2.8125 0.203125 2.066406 0.0507812 1.390625 -0.25 C 0.710938 -0.550781 0.160156 -0.976562 -0.265625 -1.53125 L 1.265625 -3.375 C 1.910156 -2.5 2.648438 -2.0625 3.484375 -2.0625 C 4.609375 -2.0625 5.171875 -2.722656 5.171875 -4.046875 L 5.171875 -9.71875 L 0.96875 -9.71875 L 0.96875 -11.9375 L 7.921875 -11.9375 L 7.921875 -4.203125 C 7.921875 -2.734375 7.554688 -1.628906 6.828125 -0.890625 C 6.097656 -0.160156 5.03125 0.203125 3.625 0.203125 Z M 3.625 0.203125 "/></g></g></g><g fill="#c7421a" fill-opacity="1"><g transform="translate(61.932075, 25.707226)"><g><path d="M 5.59375 0.140625 C 4.625 0.140625 3.753906 -0.0625 2.984375 -0.46875 C 2.222656 -0.875 1.625 -1.429688 1.1875 -2.140625 C 0.757812 -2.859375 0.546875 -3.675781 0.546875 -4.59375 C 0.546875 -5.5 0.757812 -6.3125 1.1875 -7.03125 C 1.625 -7.75 2.222656 -8.304688 2.984375 -8.703125 C 3.753906 -9.109375 4.625 -9.3125 5.59375 -9.3125 C 6.5625 -9.3125 7.425781 -9.109375 8.1875 -8.703125 C 8.945312 -8.304688 9.539062 -7.75 9.96875 -7.03125 C 10.40625 -6.3125 10.625 -5.5 10.625 -4.59375 C 10.625 -3.675781 10.40625 -2.859375 9.96875 -2.140625 C 9.539062 -1.429688 8.945312 -0.875 8.1875 -0.46875 C 7.425781 -0.0625 6.5625 0.140625 5.59375 0.140625 Z M 5.59375 -2.046875 C 6.28125 -2.046875 6.84375 -2.273438 7.28125 -2.734375 C 7.71875 -3.191406 7.9375 -3.8125 7.9375 -4.59375 C 7.9375 -5.363281 7.71875 -5.976562 7.28125 -6.4375 C 6.84375 -6.894531 6.28125 -7.125 5.59375 -7.125 C 4.914062 -7.125 4.351562 -6.894531 3.90625 -6.4375 C 3.457031 -5.976562 3.234375 -5.363281 3.234375 -4.59375 C 3.234375 -3.8125 3.457031 -3.191406 3.90625 -2.734375 C 4.351562 -2.273438 4.914062 -2.046875 5.59375 -2.046875 Z M 5.59375 -2.046875 "/></g></g></g><g fill="#c7421a" fill-opacity="1"><g transform="translate(77.610349, 25.707226)"><g><path d="M 6.65625 -9.3125 C 7.507812 -9.3125 8.285156 -9.113281 8.984375 -8.71875 C 9.679688 -8.332031 10.226562 -7.78125 10.625 -7.0625 C 11.03125 -6.351562 11.234375 -5.53125 11.234375 -4.59375 C 11.234375 -3.644531 11.03125 -2.816406 10.625 -2.109375 C 10.226562 -1.398438 9.679688 -0.847656 8.984375 -0.453125 C 8.285156 -0.0546875 7.507812 0.140625 6.65625 0.140625 C 5.394531 0.140625 4.429688 -0.257812 3.765625 -1.0625 L 3.765625 0 L 1.234375 0 L 1.234375 -12.65625 L 3.890625 -12.65625 L 3.890625 -8.203125 C 4.554688 -8.941406 5.476562 -9.3125 6.65625 -9.3125 Z M 6.1875 -2.046875 C 6.875 -2.046875 7.4375 -2.273438 7.875 -2.734375 C 8.3125 -3.191406 8.53125 -3.8125 8.53125 -4.59375 C 8.53125 -5.363281 8.3125 -5.976562 7.875 -6.4375 C 7.4375 -6.894531 6.875 -7.125 6.1875 -7.125 C 5.507812 -7.125 4.953125 -6.894531 4.515625 -6.4375 C 4.078125 -5.976562 3.859375 -5.363281 3.859375 -4.59375 C 3.859375 -3.8125 4.078125 -3.191406 4.515625 -2.734375 C 4.953125 -2.273438 5.507812 -2.046875 6.1875 -2.046875 Z M 6.1875 -2.046875 "/></g></g></g><g fill="#c7421a" fill-opacity="1"><g transform="translate(93.885642, 25.707226)"><g><path d="M 1.234375 -12.65625 L 3.890625 -12.65625 L 3.890625 0 L 1.234375 0 Z M 1.234375 -12.65625 "/></g></g></g><g fill="#c7421a" fill-opacity="1"><g transform="translate(103.525456, 25.707226)"><g><path d="M 10.34375 -9.171875 L 6.1875 0.5625 C 5.769531 1.625 5.25 2.367188 4.625 2.796875 C 4.007812 3.234375 3.265625 3.453125 2.390625 3.453125 C 1.910156 3.453125 1.4375 3.375 0.96875 3.21875 C 0.5 3.070312 0.117188 2.867188 -0.171875 2.609375 L 0.796875 0.71875 C 1.003906 0.894531 1.238281 1.035156 1.5 1.140625 C 1.769531 1.242188 2.035156 1.296875 2.296875 1.296875 C 2.660156 1.296875 2.957031 1.207031 3.1875 1.03125 C 3.414062 0.851562 3.625 0.5625 3.8125 0.15625 L 3.84375 0.0625 L -0.140625 -9.171875 L 2.609375 -9.171875 L 5.1875 -2.953125 L 7.78125 -9.171875 Z M 10.34375 -9.171875 "/></g></g></g><g fill="#ffffff" fill-opacity="1"><g transform="translate(8.92316, 32.368411)"><g><path d="M 8.125 0.453125 C 6.3125 0.453125 4.644531 0.113281 3.125 -0.5625 C 1.601562 -1.238281 0.359375 -2.203125 -0.609375 -3.453125 L 2.84375 -7.59375 C 4.300781 -5.625 5.960938 -4.640625 7.828125 -4.640625 C 10.359375 -4.640625 11.625 -6.125 11.625 -9.09375 L 11.625 -21.859375 L 2.1875 -21.859375 L 2.1875 -26.859375 L 17.796875 -26.859375 L 17.796875 -9.4375 C 17.796875 -6.132812 16.976562 -3.660156 15.34375 -2.015625 C 13.707031 -0.367188 11.300781 0.453125 8.125 0.453125 Z M 8.125 0.453125 "/></g></g></g></svg>